<svg id="Layer_1" data-name="Layer 1" xmlns="http://www.w3.org/2000/svg" viewBox="0 0 138.167 26"><defs><style>.cls-1{fill:#ff5574;}.cls-2{fill:#ffc043;}.cls-3{fill:#6168ff;}.cls-4{fill:#222;}</style></defs><title>logo</title><path class="cls-1" d="M18.592,10.111V26H1.354A1.44,1.44,0,0,1-.083,24.557h0V10.111H18.592Z" transform="translate(0.083)"/><path class="cls-2" d="M28.647,10.111V24.556A1.44,1.44,0,0,1,27.211,26H21.465V10.111h7.182Z" transform="translate(0.083)"/><path class="cls-3" d="M27.211,0a1.44,1.44,0,0,1,1.436,1.444h0V7.222H-0.083V1.444A1.44,1.44,0,0,1,1.353,0H27.211Z" transform="translate(0.083)"/><path class="cls-4" d="M60.593,6.743a8.008,8.008,0,0,1,1.862,5.68v10.3H58.8V12.806a5.17,5.17,0,0,0-1.219-3.674,4.355,4.355,0,0,0-3.337-1.3,4.579,4.579,0,0,0-3.5,1.4,5.748,5.748,0,0,0-1.316,4.092v9.4H45.768V5.04h3.658V8.923A5.917,5.917,0,0,1,51.8,5.844a6.865,6.865,0,0,1,3.852-1.092A6.445,6.445,0,0,1,60.593,6.743Z" transform="translate(0.083)"/><path class="cls-4" d="M77.919,6a6.4,6.4,0,0,1,2.408,3.144V5.04h3.658V22.721H80.326V18.614a6.385,6.385,0,0,1-2.408,3.144,6.972,6.972,0,0,1-4.1,1.188,7.822,7.822,0,0,1-4.123-1.092,7.449,7.449,0,0,1-2.841-3.144,10.716,10.716,0,0,1-1.026-4.844,10.653,10.653,0,0,1,1.026-4.815A7.464,7.464,0,0,1,69.69,5.907a7.846,7.846,0,0,1,4.123-1.092A6.991,6.991,0,0,1,77.919,6ZM71.038,9.581a6.013,6.013,0,0,0-1.46,4.285,6.007,6.007,0,0,0,1.46,4.283,5.09,5.09,0,0,0,3.9,1.556,5.289,5.289,0,0,0,2.758-.723,5.124,5.124,0,0,0,1.927-2.037,6.425,6.425,0,0,0,.705-3.079,6.452,6.452,0,0,0-.705-3.066,5.1,5.1,0,0,0-1.927-2.052,5.289,5.289,0,0,0-2.758-.723A5.09,5.09,0,0,0,71.038,9.581Z" transform="translate(0.083)"/><path class="cls-4" d="M115.509,6.743a7.954,7.954,0,0,1,1.878,5.68v10.3h-3.658V12.806a5.121,5.121,0,0,0-1.154-3.577A4.076,4.076,0,0,0,109.4,7.962a4.44,4.44,0,0,0-3.418,1.363,5.663,5.663,0,0,0-1.269,4v9.4h-3.656V12.806A5.122,5.122,0,0,0,99.9,9.229a4.076,4.076,0,0,0-3.175-1.266A4.444,4.444,0,0,0,93.3,9.325a5.662,5.662,0,0,0-1.266,4v9.4H88.38V5.04h3.658V8.73a5.611,5.611,0,0,1,2.246-2.951,6.593,6.593,0,0,1,3.69-1.026,6.687,6.687,0,0,1,3.833,1.092,6.177,6.177,0,0,1,2.361,3.144,6.368,6.368,0,0,1,2.47-3.113,6.818,6.818,0,0,1,3.849-1.123A6.575,6.575,0,0,1,115.509,6.743Z" transform="translate(0.083)"/><path class="cls-4" d="M137.955,14.6h-13.6a5.55,5.55,0,0,0,1.509,4.042,4.928,4.928,0,0,0,3.5,1.316,5.084,5.084,0,0,0,3.1-.93,3.854,3.854,0,0,0,1.556-2.47h3.914a7.515,7.515,0,0,1-4.4,5.567,9.551,9.551,0,0,1-4.011.817,9.205,9.205,0,0,1-4.538-1.092,7.757,7.757,0,0,1-3.1-3.144,9.938,9.938,0,0,1-1.123-4.844,9.88,9.88,0,0,1,1.123-4.815,7.773,7.773,0,0,1,3.1-3.144,10.051,10.051,0,0,1,9.08-.016,7.48,7.48,0,0,1,2.985,2.951,8.49,8.49,0,0,1,1.042,4.189A8.445,8.445,0,0,1,137.955,14.6ZM133.8,10.03A4.129,4.129,0,0,0,132,8.3a5.534,5.534,0,0,0-2.489-.561,5.148,5.148,0,0,0-3.593,1.313,5.387,5.387,0,0,0-1.572,3.883h10.043A5.421,5.421,0,0,0,133.8,10.03Z" transform="translate(0.083)"/></svg>