<svg id="Layer_3" data-name="Layer 3" xmlns="http://www.w3.org/2000/svg" viewBox="0 0 200 200"><defs><style>.cls-1{fill:#00bfd8;}.cls-2{fill:#fcd5ca;}.cls-3{fill:#f1f2f2;}.cls-4{fill:#e6e7e8;}.cls-5{fill:#2f343a;}.cls-6{fill:#a0b2be;}.cls-7{fill:#fff;}</style></defs><title>team-member-2</title><rect class="cls-1" width="200" height="200"/><polygon class="cls-2" points="115.432 157.95 101.345 192.143 86.572 157.95 86.572 126.305 115.432 126.305 115.432 157.95"/><path class="cls-3" d="M86.572,145.163s-30.942,4.01-34.994,8.231c-3.529,3.677-10.865,38.88-12.562,46.606H101V181.439Z"/><path class="cls-4" d="M115.432,145.163s30.94,4.01,34.992,8.231c3.528,3.677,10.865,38.88,12.561,46.606H101V181.439Z"/><path class="cls-2" d="M101,35.754c14.012,0,36.172,7.966,36.172,45.294,0,21.552-7.027,35.67-10.088,39.576-2.817,3.594-18.653,11.252-26.084,11.252V35.754Z"/><path class="cls-2" d="M144.143,89.948c0.617-5.964-2.224-11.256-6.346-11.822s-7.966,3.811-8.584,9.776,2.224,11.254,6.347,11.82S143.524,95.91,144.143,89.948Z"/><path class="cls-2" d="M101,35.754c-14.012,0-36.172,7.966-36.172,45.294,0,21.552,7.026,35.67,10.088,39.576,2.817,3.594,18.653,11.252,26.084,11.252V35.754Z"/><path class="cls-2" d="M57.859,89.948c-0.618-5.964,2.224-11.256,6.345-11.822s7.966,3.811,8.585,9.776-2.225,11.254-6.347,11.82S58.476,95.91,57.859,89.948Z"/><path class="cls-5" d="M69.645,90.6h2.5s-1.519-9.721,2.937-12.86V71.463s-1.722-.2-1.722-7.593S82.168,51.213,101,51.213V24.174s-37.229.793-37.229,27.812V78.148A6.259,6.259,0,0,1,68.429,79.3C70.523,81.051,69.645,90.6,69.645,90.6Z"/><path class="cls-5" d="M132.357,90.6h-2.5s1.518-9.721-2.936-12.86V71.463s1.721-.2,1.721-7.593S119.835,51.213,101,51.213V24.174s37.229-.849,37.229,26.17v27.8a6.259,6.259,0,0,0-4.658,1.148C131.479,81.051,132.357,90.6,132.357,90.6Z"/><polygon class="cls-6" points="101.001 181.439 91.193 147.926 87.573 163.029 101.001 181.439"/><polygon class="cls-7" points="86.164 141.694 91.312 148.385 87.573 163.029 79.664 152.362 86.164 141.694"/><polygon class="cls-6" points="101.002 181.439 109.883 147.532 114.431 163.029 101.002 181.439"/><polygon class="cls-7" points="115.837 141.694 109.764 147.989 114.431 163.029 123.024 152.362 115.837 141.694"/><path class="cls-7" d="M101,115.8c6.532,0,11.826-2.156,11.826-4.819H89.174C89.174,113.642,94.468,115.8,101,115.8Z"/></svg>