<svg id="Layer_2" data-name="Layer 2" xmlns="http://www.w3.org/2000/svg" viewBox="0 0 200 200"><defs><style>.cls-1{fill:#00bfd8;}.cls-2{fill:#461811;}.cls-3{fill:#f9cbbd;}.cls-4{fill:#eac8ad;}.cls-5{fill:#fff;}.cls-6{fill:#098b8e;}.cls-7{fill:#007b85;}</style></defs><title>team-member-3</title><rect class="cls-1" width="200" height="200"/><path class="cls-2" d="M143.238,104.61c0,23.328-18.911,11.226-42.238,11.226h0c-23.327,0-42.238,12.1-42.238-11.226V66.429A42.237,42.237,0,0,1,101,24.191h0a42.237,42.237,0,0,1,42.238,42.238V104.61Z"/><circle class="cls-2" cx="101.183" cy="66.787" r="43.085"/><polygon class="cls-3" points="115.598 159.053 101 200 86.767 159.053 86.767 127.441 115.598 127.441 115.598 159.053"/><path class="cls-3" d="M101.183,39.828c-14,0-36.134,7.958-36.134,45.246,0,21.529,8.392,31.68,11.45,35.582,2.815,3.589,17.261,15.193,24.684,15.193V39.828Z"/><path class="cls-3" d="M58.085,93.965c-0.618-5.958,2.221-11.246,6.339-11.81S72.383,85.962,73,91.92s-2.223,11.242-6.341,11.808S58.7,99.921,58.085,93.965Z"/><path class="cls-3" d="M101.068,39.828c14,0,36.133,7.958,36.133,45.246,0,21.529-8.39,31.68-11.449,35.582-2.814,3.589-17.26,15.193-24.684,15.193V39.828Z"/><path class="cls-3" d="M144.28,93.965c0.616-5.958-2.223-11.246-6.34-11.81s-7.958,3.807-8.575,9.765,2.221,11.242,6.34,11.808S143.662,99.921,144.28,93.965Z"/><path class="cls-4" d="M101,200V160.623s-10.755-2.665-13.126-11.377a30.783,30.783,0,0,1-1.107-7.547S63.251,149.642,58,157.845c-4.369,13-5.567,42.155-5.567,42.155H101Z"/><path class="cls-4" d="M101,200V160.623s10.755-2.665,13.126-11.377a30.813,30.813,0,0,0,1.107-7.547s23.516,7.943,28.766,16.146c4.369,13,5.567,42.155,5.567,42.155H101Z"/><path class="cls-5" d="M101.183,122.717c5.457,0,9.88-3.35,9.88-7.484H91.3C91.3,119.367,95.726,122.717,101.183,122.717Z"/><path class="cls-2" d="M99.146,29.1c-25.577,0-33.353,22.408-33.353,32.727-9.276,12.892.836,24.428,8,28.48V83.964c0-8.338,7.927-16.058,19.835-14.773,10.671,1.151,17.392-4.878,23.068-15.132C123.7,40.327,114.952,29.1,99.146,29.1Z"/><path class="cls-2" d="M115.6,49.843S121.574,74.1,137.94,82.155c2.913-21.812,4.635-17.218,0-28.7S115.6,33.436,115.6,33.436V49.843Z"/><path class="cls-6" d="M101,200V166.882L86.767,141.7S63.251,149.642,58,157.845c-4.369,13-5.567,42.155-5.567,42.155H101Z"/><path class="cls-7" d="M101,200V166.882L115.233,141.7s23.516,7.943,28.766,16.146c4.369,13,5.567,42.155,5.567,42.155H101Z"/><polygon class="cls-5" points="101 166.882 86.767 141.699 73.693 145.88 84.823 170.849 101 166.882"/><polygon class="cls-5" points="101 166.882 115.233 141.699 128.307 145.88 117.177 170.849 101 166.882"/></svg>