<svg id="Layer_4" data-name="Layer 4" xmlns="http://www.w3.org/2000/svg" viewBox="0 0 121 32"><defs><style>.cls-1{fill:#7dc22b;}.cls-2{fill:#fff;}</style></defs><title>logo</title><path class="cls-1" d="M32.239,3.429V28.571A3.441,3.441,0,0,1,28.786,32H3.454A3.441,3.441,0,0,1,0,28.572H0V3.429A3.441,3.441,0,0,1,3.453,0H28.785a3.441,3.441,0,0,1,3.454,3.428h0ZM21.876,18.857a4.032,4.032,0,0,0-2.719,1.048l-4.891-2.912a4,4,0,0,0,0-1.985L19.157,12.1a3.968,3.968,0,1,0-1.186-1.959L13.08,13.049a4,4,0,1,0,0,5.9l4.891,2.912A4.034,4.034,0,1,0,21.876,18.857Z" transform="translate(0 0)"/><path class="cls-2" d="M62.257,26.081H58.364L48.808,10.6H48.7l0.066,0.864q0.186,2.471.186,4.518v10.1H46.07V6.653h3.854l9.529,15.4h0.08c-0.018-.2-0.055-0.945-0.107-2.226s-0.08-2.279-.08-3V6.653h2.91V26.081Z" transform="translate(0 0)"/><path class="cls-2" d="M76.252,26.081l-0.625-2.047H75.521a6.013,6.013,0,0,1-2.14,1.827,6.749,6.749,0,0,1-2.764.485,4.679,4.679,0,0,1-3.382-1.169,4.378,4.378,0,0,1-1.216-3.31,3.884,3.884,0,0,1,1.688-3.428,9.728,9.728,0,0,1,5.143-1.263l2.538-.08V16.314a2.971,2.971,0,0,0-.657-2.106,2.682,2.682,0,0,0-2.04-.7,7.046,7.046,0,0,0-2.166.333,16.252,16.252,0,0,0-1.993.783L67.52,12.394a10.923,10.923,0,0,1,2.618-.95,12.066,12.066,0,0,1,2.685-.325,6.356,6.356,0,0,1,4.233,1.223,4.786,4.786,0,0,1,1.429,3.84v9.9H76.252ZM71.6,23.955A3.867,3.867,0,0,0,74.331,23a3.446,3.446,0,0,0,1.03-2.665V19.064l-1.887.08a6.457,6.457,0,0,0-3.21.737,2.24,2.24,0,0,0-1,2.014,1.963,1.963,0,0,0,.585,1.521A2.514,2.514,0,0,0,71.6,23.955Z" transform="translate(0 0)"/><path class="cls-2" d="M95.23,26.081H92.094V17.019a4.114,4.114,0,0,0-.638-2.519,2.355,2.355,0,0,0-1.993-.83,3.041,3.041,0,0,0-2.652,1.176,6.9,6.9,0,0,0-.844,3.913v7.322H82.844v-14.7h2.446l0.439,1.927h0.159a4.073,4.073,0,0,1,1.775-1.621,5.723,5.723,0,0,1,2.558-.571q3.39,0,4.493,2.313h0.213a4.475,4.475,0,0,1,1.833-1.7,5.827,5.827,0,0,1,2.711-.611,4.937,4.937,0,0,1,3.834,1.329,5.883,5.883,0,0,1,1.2,4.053v9.581h-3.123V17.019a4.079,4.079,0,0,0-.645-2.519,2.374,2.374,0,0,0-2-.83,3.1,3.1,0,0,0-2.664,1.136,5.849,5.849,0,0,0-.845,3.488v7.787Z" transform="translate(0 0)"/><path class="cls-2" d="M115.286,26.347a7.108,7.108,0,0,1-5.363-2,7.59,7.59,0,0,1-1.934-5.508,8.328,8.328,0,0,1,1.794-5.661,6.2,6.2,0,0,1,4.93-2.06,6.057,6.057,0,0,1,4.6,1.768A6.753,6.753,0,0,1,121,17.749v1.688h-9.795a4.825,4.825,0,0,0,1.156,3.289,4.025,4.025,0,0,0,3.07,1.149,11.332,11.332,0,0,0,2.426-.246,12.634,12.634,0,0,0,2.412-.817v2.539a9.6,9.6,0,0,1-2.313.771A14.206,14.206,0,0,1,115.286,26.347Zm-0.572-12.863a3.137,3.137,0,0,0-2.385.943,4.5,4.5,0,0,0-1.07,2.751h6.673a4.072,4.072,0,0,0-.878-2.758A3,3,0,0,0,114.713,13.483Z" transform="translate(0 0)"/></svg>