<svg id="Layer_1" data-name="Layer 1" xmlns="http://www.w3.org/2000/svg" viewBox="0 0 200 200"><defs><style>.cls-1{fill:#00bfd8;}.cls-2{fill:#482b1b;}.cls-3{fill:#ffcebc;}.cls-4{fill:#eac8ad;}.cls-5{fill:#fff;}.cls-6{fill:#ffd04d;}.cls-7{fill:#f4c34a;}</style></defs><title>team-member-1</title><rect class="cls-1" width="200" height="200"/><circle class="cls-2" cx="100.174" cy="72.353" r="41.285"/><polygon class="cls-3" points="113.987 160.764 100 200 86.362 160.764 86.362 130.473 113.987 130.473 113.987 160.764"/><path class="cls-3" d="M100.174,46.522c-13.413,0-34.624,7.624-34.624,43.355,0,20.629,8.041,30.356,10.971,34.095,2.7,3.439,16.54,14.558,23.652,14.558V46.522Z"/><path class="cls-3" d="M58.878,98.4c-0.591-5.709,2.13-10.775,6.074-11.317s7.626,3.648,8.218,9.357-2.129,10.773-6.076,11.314S59.47,104.1,58.878,98.4Z"/><path class="cls-3" d="M100.065,46.522c13.413,0,34.624,7.624,34.624,43.355,0,20.629-8.04,30.356-10.971,34.095-2.7,3.439-16.54,14.558-23.652,14.558V46.522Z"/><path class="cls-3" d="M141.471,98.4c0.591-5.709-2.13-10.775-6.074-11.317s-7.626,3.648-8.218,9.357,2.129,10.773,6.076,11.314S140.879,104.1,141.471,98.4Z"/><path class="cls-4" d="M100,200V162.268s-10.306-2.554-12.577-10.9a29.451,29.451,0,0,1-1.061-7.232S63.828,151.746,58.8,159.606C54.611,172.067,53.464,200,53.464,200H100Z"/><path class="cls-4" d="M100,200V162.268s10.3-2.554,12.578-10.9a29.478,29.478,0,0,0,1.06-7.232s22.534,7.611,27.564,15.472c4.186,12.461,5.334,40.394,5.334,40.394H100Z"/><path class="cls-4" d="M100,200V162.268s-10.306-2.554-12.577-10.9a29.451,29.451,0,0,1-1.061-7.232S63.828,151.746,58.8,159.606C54.611,172.067,53.464,200,53.464,200H100Z"/><path class="cls-4" d="M100,200V162.268s10.3-2.554,12.578-10.9a29.478,29.478,0,0,0,1.06-7.232s22.534,7.611,27.564,15.472c4.186,12.461,5.334,40.394,5.334,40.394H100Z"/><path class="cls-5" d="M100.174,125.946c5.229,0,9.467-3.21,9.467-7.171H90.707C90.707,122.736,94.946,125.946,100.174,125.946Z"/><path class="cls-2" d="M98.223,36.241c-24.508,0-31.959,21.471-31.959,31.36-8.888,12.354.8,23.407,7.66,27.29V88.812c0-7.989,7.6-15.387,19.006-14.156,10.225,1.1,16.664-4.674,22.1-14.5C121.751,47,113.369,36.241,98.223,36.241Z"/><path class="cls-2" d="M113.987,56.117s5.726,23.248,21.409,30.962c2.791-20.9,4.441-16.5,0-27.5S113.987,40.4,113.987,40.4V56.117Z"/><path class="cls-6" d="M141.2,159.606c-4.2-6.557-20.562-12.937-25.878-14.874a15.336,15.336,0,0,1-30.649,0c-5.316,1.937-21.681,8.317-25.878,14.874C54.611,172.067,53.464,200,53.464,200h93.072S145.388,172.067,141.2,159.606Z"/><path class="cls-7" d="M146.536,200s-1.148-27.933-5.334-40.394c-4.2-6.557-20.562-12.937-25.878-14.874A15.337,15.337,0,0,1,100,159.474V200h46.536Z"/><path class="cls-7" d="M79.622,146.688a20.626,20.626,0,0,0,40.756,0c-2.071-.846-3.848-1.516-5.054-1.955a15.336,15.336,0,0,1-30.649,0C83.471,145.172,81.693,145.841,79.622,146.688Z"/><circle class="cls-2" cx="100.175" cy="31.068" r="13.813"/></svg>